<svg width="300" height="300" viewBox="0 0 300 300" fill="none" xmlns="http://www.w3.org/2000/svg">
<path fill-rule="evenodd" clip-rule="evenodd" d="M197.314 57.6663C193.065 68.6181 175.584 91.4729 145.594 91.8901C130.307 92.1028 107 141.168 107 210.5C111 254 123.959 265.751 135 254C129.88 224.134 138.282 214.464 143.357 208.623C144.23 207.62 145.004 206.729 145.594 205.868C149.617 200 155.5 195.562 175.33 187.499C243.281 159.868 244.214 61.2231 197.314 57.6663ZM190.27 145.232C198.69 138.123 199.753 125.534 192.645 117.114C185.536 108.694 172.947 107.631 164.527 114.739C156.107 121.848 155.044 134.437 162.152 142.857C169.261 151.277 181.85 152.34 190.27 145.232Z" fill="#FF773D"/>
<path fill-rule="evenodd" clip-rule="evenodd" d="M168.472 46.7062C164.223 57.658 146.742 80.5128 116.752 80.9301C101.465 81.1428 78.1581 130.207 78.1581 199.54C81.9935 241.251 94.0664 253.771 104.787 244.37C100.528 236.796 97.0721 223.854 95.3251 204.854C95.3251 135.522 118.632 86.4572 133.919 86.2445C162.864 85.8418 180.156 64.5385 185.147 53.2078C180.539 49.5126 174.964 47.1985 168.472 46.7062Z" fill="#FF773D"/>
</svg>
