<?xml version="1.0" standalone="no"?>
<!DOCTYPE svg PUBLIC "-//W3C//DTD SVG 20010904//EN"
 "http://www.w3.org/TR/2001/REC-SVG-20010904/DTD/svg10.dtd">
<svg version="1.0" xmlns="http://www.w3.org/2000/svg"
 width="300.000000pt" height="300.000000pt" viewBox="0 0 300.000000 300.000000"
 preserveAspectRatio="xMidYMid meet">
<metadata>
Created by potrace 1.14, written by Peter Selinger 2001-2017
</metadata>
<g transform="translate(0.000000,300.000000) scale(0.100000,-0.100000)"
fill="#000000" stroke="none">
<path d="M1650 2478 c-84 -145 -288 -278 -429 -278 -107 0 -173 -57 -251 -214
-110 -224 -175 -514 -187 -846 -5 -130 -2 -186 11 -263 34 -198 88 -319 156
-347 27 -11 36 -11 67 4 27 13 33 20 27 34 -27 62 -55 162 -70 252 -39 240 9
666 108 950 44 124 114 255 167 309 45 47 49 48 121 55 136 14 255 66 354 157
58 53 126 147 126 174 0 17 -82 59 -135 68 -28 5 -32 1 -65 -55z"/>
<path d="M1948 2382 c-32 -65 -159 -190 -234 -229 -69 -37 -160 -63 -219 -63
-63 -1 -118 -31 -163 -92 -107 -142 -192 -389 -239 -698 -25 -163 -25 -484 0
-599 48 -222 131 -325 220 -274 l32 19 0 155 c0 145 1 157 26 209 15 30 53 86
85 124 65 76 115 108 286 182 135 59 221 118 315 217 159 169 243 384 243 620
-1 254 -116 437 -297 470 -30 6 -33 4 -55 -41z m-87 -508 c90 -45 131 -152 93
-242 -33 -80 -97 -123 -181 -123 -155 0 -246 170 -160 300 53 79 162 108 248
65z"/>
</g>
</svg>
